# Blender v2.82 (sub 7) OBJ File: ''
# www.blender.org
mtllib enderhorn.mtl
o Cynder
v -0.327246 0.594420 -0.336446
v -0.510615 0.948152 -0.840083
v -0.522009 0.947963 -0.845877
v -0.546178 0.911980 -0.825956
v -0.506853 0.943195 -0.852826
v -0.522773 0.921585 -0.866430
v -0.496746 0.800118 -0.890217
v -0.539724 0.848765 -0.877917
v -0.555811 0.894734 -0.852822
v -0.401859 0.253065 -0.182338
v -0.315567 0.297013 -0.184023
v -0.388866 0.301668 -0.141493
v -0.443114 0.307444 -0.160082
v -0.310713 0.455985 -0.085164
v -0.283987 0.400937 -0.132145
v -0.324515 0.495082 -0.079715
v -0.374845 0.438029 -0.085984
v -0.265572 0.509288 -0.108479
v -0.203304 0.407107 -0.193641
v -0.222459 0.274860 -0.410999
v -0.188253 0.302257 -0.374834
v -0.242401 0.259995 -0.318379
v -0.284470 0.237531 -0.355849
v -0.182874 0.346881 -0.437434
v -0.304424 0.257504 -0.456908
v -0.287217 0.363627 -0.618930
v -0.374529 0.241076 -0.401200
v -0.448121 0.318415 -0.601871
v -0.365356 0.332317 -0.633984
v -0.435100 0.249485 -0.312287
v -0.521332 0.333657 -0.539398
v -0.559998 0.435869 -0.711411
v -0.487452 0.425413 -0.764717
v -0.471298 0.278413 -0.248872
v -0.565026 0.369935 -0.471080
v -0.603861 0.470059 -0.643881
v -0.622226 0.620324 -0.747201
v -0.572297 0.580920 -0.820464
v -0.571519 0.425763 -0.405240
v -0.608751 0.518457 -0.575986
v -0.593323 0.775118 -0.827967
v -0.566861 0.520362 -0.403973
v -0.607339 0.681383 -0.706491
v -0.547674 0.697850 -0.633533
v -0.566336 0.787772 -0.748099
v -0.512148 0.814049 -0.739502
v -0.463779 0.830651 -0.760376
v -0.397402 0.777621 -0.755978
v -0.389662 0.725950 -0.651383
v -0.348710 0.715252 -0.766269
v -0.357415 0.685401 -0.819165
v -0.387466 0.627123 -0.854844
v -0.459497 0.803134 -0.875643
v -0.441936 0.588503 -0.870159
v -0.510402 0.571037 -0.856937
v -0.545862 0.745196 -0.880161
v -0.406794 0.443561 -0.788274
v -0.337057 0.484475 -0.775654
v -0.288724 0.536914 -0.732866
v -0.230475 0.431225 -0.590336
v -0.152845 0.425396 -0.379674
v -0.170058 0.508326 -0.279272
v -0.163850 0.431073 -0.243599
v -0.160212 0.360144 -0.319274
v -0.201329 0.321086 -0.274909
v -0.211131 0.540726 -0.192433
v -0.204848 0.487809 -0.167058
v -0.279698 0.557012 -0.129919
v -0.308634 0.599156 -0.199467
v -0.371478 0.582539 -0.188859
v -0.345413 0.532357 -0.101019
v -0.252934 0.589987 -0.244715
v -0.290365 0.649386 -0.586820
v -0.269961 0.595663 -0.666573
v -0.456300 0.723007 -0.629454
v -0.491057 0.575396 -0.325352
v -0.397321 0.495991 -0.110819
v -0.459762 0.408060 -0.152680
v -0.416913 0.361245 -0.119443
v -0.511130 0.357715 -0.259623
v 0.513871 0.950741 -0.840814
v 0.506413 0.941005 -0.854066
v 0.504082 0.805753 -0.890471
v 0.518796 0.945482 -0.855618
v 0.548283 0.891218 -0.865553
v 0.549216 0.912189 -0.832935
v 0.396343 0.255612 -0.181086
v 0.392371 0.294574 -0.146191
v 0.400923 0.240840 -0.240274
v 0.434140 0.259269 -0.203451
v 0.443058 0.307514 -0.160506
v 0.298555 0.461201 -0.091148
v 0.324683 0.409693 -0.099375
v 0.374845 0.438030 -0.085984
v 0.324515 0.495083 -0.079715
v 0.265572 0.509288 -0.108479
v 0.203643 0.404539 -0.195190
v 0.313746 0.298923 -0.183498
v 0.221085 0.277970 -0.418630
v 0.285211 0.237360 -0.358330
v 0.245146 0.259536 -0.314756
v 0.188253 0.302257 -0.374834
v 0.181986 0.348249 -0.436950
v 0.305257 0.257523 -0.456057
v 0.374983 0.242398 -0.408223
v 0.365355 0.332318 -0.633983
v 0.448120 0.318415 -0.601870
v 0.465484 0.272179 -0.377529
v 0.521332 0.333658 -0.539398
v 0.487451 0.425413 -0.764717
v 0.559998 0.435869 -0.711411
v 0.565027 0.369935 -0.471080
v 0.504383 0.306100 -0.314755
v 0.603848 0.470065 -0.643877
v 0.572297 0.580919 -0.820465
v 0.621678 0.622696 -0.748258
v 0.608727 0.518457 -0.575988
v 0.571519 0.425764 -0.405241
v 0.590452 0.794445 -0.830738
v 0.607415 0.681211 -0.706386
v 0.567091 0.520575 -0.404387
v 0.554136 0.807561 -0.752971
v 0.547736 0.698593 -0.634153
v 0.472305 0.827013 -0.751194
v 0.399146 0.777046 -0.752354
v 0.385230 0.719183 -0.644451
v 0.293425 0.630404 -0.707699
v 0.360854 0.692883 -0.819762
v 0.458116 0.797310 -0.876603
v 0.387466 0.627123 -0.854845
v 0.441935 0.588503 -0.870160
v 0.545795 0.747452 -0.880705
v 0.510402 0.571036 -0.856938
v 0.406794 0.443562 -0.788274
v 0.337057 0.484475 -0.775654
v 0.288177 0.371916 -0.629013
v 0.230475 0.431225 -0.590335
v 0.288724 0.536914 -0.732866
v 0.151635 0.421791 -0.375826
v 0.165741 0.498485 -0.282363
v 0.160212 0.360144 -0.319274
v 0.163850 0.431073 -0.243598
v 0.201329 0.321086 -0.274909
v 0.204848 0.487809 -0.167058
v 0.211131 0.540726 -0.192433
v 0.279699 0.557012 -0.129919
v 0.345413 0.532358 -0.101019
v 0.374316 0.584805 -0.194678
v 0.310548 0.601361 -0.204384
v 0.251586 0.590244 -0.244789
v 0.259949 0.614432 -0.526275
v 0.457680 0.727136 -0.635036
v 0.492194 0.574159 -0.327230
v 0.402631 0.495291 -0.113173
v 0.456269 0.410139 -0.148824
v 0.416913 0.361245 -0.119443
v 0.511131 0.357715 -0.259624
vt 0.110887 0.881118
vt 0.129711 0.872907
vt 0.121973 0.881140
vt 0.084932 0.670698
vt 0.099532 0.680406
vt 0.083236 0.682824
vt 0.094957 0.709895
vt 0.104130 0.717916
vt 0.092908 0.716670
vt 0.186867 0.745257
vt 0.172876 0.751526
vt 0.177014 0.738353
vt 0.201504 0.738133
vt 0.214980 0.752338
vt 0.199844 0.757535
vt 0.054900 0.837822
vt 0.070255 0.835013
vt 0.072020 0.860744
vt 0.085023 0.849892
vt 0.096207 0.871247
vt 0.081948 0.823360
vt 0.096439 0.849002
vt 0.101840 0.875744
vt 0.106698 0.851825
vt 0.116671 0.841601
vt 0.127217 0.866798
vt 0.101720 0.877963
vt 0.140154 0.841167
vt 0.090488 0.874752
vt 0.097544 0.879795
vt 0.083387 0.878946
vt 0.100214 0.876208
vt 0.182236 0.787598
vt 0.196494 0.794658
vt 0.121650 0.665818
vt 0.119191 0.655397
vt 0.076433 0.764937
vt 0.091476 0.740085
vt 0.079064 0.722516
vt 0.091934 0.723777
vt 0.076222 0.678767
vt 0.075895 0.693628
vt 0.044216 0.739784
vt 0.032334 0.729640
vt 0.044370 0.716441
vt 0.060447 0.724352
vt 0.099592 0.821291
vt 0.861297 0.933055
vt 0.845650 0.924678
vt 0.864453 0.931563
vt 0.889772 0.722842
vt 0.883070 0.712886
vt 0.893647 0.719189
vt 0.883390 0.754603
vt 0.877928 0.761865
vt 0.855580 0.749606
vt 0.875147 0.731684
vt 0.787729 0.797532
vt 0.774670 0.808290
vt 0.773198 0.789061
vt 0.759381 0.804430
vt 0.937713 0.862720
vt 0.919620 0.888668
vt 0.925261 0.855281
vt 0.897002 0.914066
vt 0.879447 0.923696
vt 0.904271 0.885818
vt 0.886124 0.900264
vt 0.872935 0.926485
vt 0.869965 0.900897
vt 0.857756 0.892182
vt 0.835267 0.893088
vt 0.835039 0.867391
vt 0.872797 0.928697
vt 0.846424 0.917035
vt 0.884709 0.927342
vt 0.909683 0.923101
vt 0.874398 0.928054
vt 0.801638 0.802380
vt 0.817531 0.795621
vt 0.807242 0.834200
vt 0.849307 0.730271
vt 0.853664 0.716659
vt 0.842882 0.751889
vt 0.854800 0.767496
vt 0.858185 0.792695
vt 0.837000 0.786878
vt 0.856046 0.778568
vt 0.844178 0.837646
vt 0.871105 0.791507
vt 0.863115 0.870414
vt 0.892596 0.874142
vt 0.874977 0.873341
vt 0.883095 0.792042
vt 0.898088 0.816067
vt 0.895500 0.773949
vt 0.914189 0.762636
vt 0.930139 0.767320
vt 0.914044 0.774571
vt 0.891308 0.732053
vt 0.898288 0.729605
vt 0.898615 0.744465
vt 0.954421 0.771001
vt 0.972678 0.774321
vt 0.972836 0.795746
vt 0.134951 0.656396
vt 0.137681 0.666138
vt 0.081059 0.710763
vt 0.100993 0.700757
vt 0.118684 0.699161
vt 0.212274 0.796595
vt 0.016954 0.783194
vt 0.001195 0.790618
vt 0.001758 0.743553
vt 0.019174 0.734634
vt 0.024117 0.820484
vt 0.011265 0.830220
vt 0.030895 0.776374
vt 0.036795 0.811884
vt 0.041704 0.848897
vt 0.049249 0.804444
vt 0.044405 0.770294
vt 0.060718 0.776444
vt 0.130363 0.834951
vt 0.111212 0.821397
vt 0.107871 0.878700
vt 0.152782 0.845040
vt 0.163255 0.851203
vt 0.141485 0.875925
vt 0.172897 0.859695
vt 0.064849 0.872215
vt 0.032910 0.858246
vt 0.183020 0.827668
vt 0.196997 0.833490
vt 0.170399 0.821419
vt 0.157776 0.814546
vt 0.167268 0.783363
vt 0.141318 0.723034
vt 0.161139 0.731038
vt 0.156785 0.745775
vt 0.137316 0.737047
vt 0.125204 0.679434
vt 0.137852 0.682256
vt 0.131628 0.701052
vt 0.119711 0.716658
vt 0.118464 0.727731
vt 0.103422 0.726355
vt 0.103450 0.739718
vt 0.116323 0.741910
vt 0.128598 0.800197
vt 0.143959 0.807360
vt 0.060320 0.711799
vt 0.030541 0.716814
vt 0.001831 0.723484
vt 0.893451 0.761601
vt 0.881603 0.767507
vt 0.836830 0.716974
vt 0.839561 0.707233
vt 0.855101 0.706214
vt 0.870380 0.768754
vt 0.762236 0.847431
vt 0.778016 0.845495
vt 0.797497 0.789190
vt 0.957556 0.834031
vt 0.956676 0.799579
vt 0.973314 0.841455
vt 0.950392 0.871320
vt 0.963245 0.881056
vt 0.943614 0.827211
vt 0.942990 0.794784
vt 0.932806 0.899733
vt 0.930104 0.821131
vt 0.913787 0.827368
vt 0.866609 0.929535
vt 0.821728 0.895878
vt 0.811254 0.902040
vt 0.833025 0.926762
vt 0.801613 0.910532
vt 0.941600 0.909082
vt 0.891177 0.932015
vt 0.791490 0.878505
vt 0.777514 0.884327
vt 0.804111 0.872255
vt 0.792624 0.840655
vt 0.816734 0.865382
vt 0.833192 0.773871
vt 0.813372 0.781874
vt 0.836659 0.733092
vt 0.871089 0.777193
vt 0.882576 0.774614
vt 0.930293 0.790621
vt 0.941862 0.769398
vn -0.1797 0.4052 -0.8964
vn 0.0779 0.0742 -0.9942
vn -0.4430 0.1306 -0.8870
vn -0.1225 -0.8625 0.4910
vn 0.4594 -0.6438 0.6120
vn 0.0481 -0.5551 0.8304
vn 0.3400 -0.2381 0.9098
vn 0.5587 0.2031 0.8041
vn 0.0572 0.2197 0.9739
vn 0.5790 -0.7686 -0.2722
vn 0.8699 -0.3546 -0.3428
vn 0.8086 -0.5852 -0.0605
vn 0.2409 -0.9706 -0.0028
vn -0.1461 -0.9746 -0.1695
vn 0.2108 -0.9064 -0.3660
vn -0.9789 -0.0566 -0.1962
vn -0.9026 0.3364 0.2685
vn -0.9417 0.1456 -0.3033
vn -0.5543 0.5480 0.6265
vn -0.7002 0.5724 0.4267
vn -0.5379 0.6917 0.4819
vn -0.1578 0.6753 0.7204
vn 0.2398 0.9019 0.3592
vn 0.3054 0.6812 0.6654
vn 0.7080 0.6739 0.2113
vn 0.5302 0.2170 -0.8196
vn 0.4548 0.7096 -0.5382
vn 0.7898 0.2020 -0.5791
vn -0.8506 0.3488 -0.3935
vn -0.4367 0.8948 -0.0931
vn 0.5980 -0.5939 -0.5383
vn 0.1950 -0.8252 -0.5302
vn 0.5330 -0.8123 0.2368
vn -0.6704 0.5915 0.4479
vn -0.3739 0.7982 0.4723
vn -0.6056 0.3684 0.7054
vn -0.2177 0.6014 0.7687
vn -0.6399 -0.4380 0.6314
vn -0.3939 -0.2560 0.8828
vn -0.9138 -0.2009 0.3530
vn -0.7205 -0.6554 0.2265
vn -0.7966 0.0677 0.6007
vn -0.0449 0.8761 0.4801
vn 0.6192 0.3135 -0.7199
vn -0.0025 0.1003 -0.9950
vn 0.2402 0.7467 -0.6203
vn 0.0048 -0.8332 0.5529
vn 0.1617 -0.9778 0.1329
vn 0.5657 -0.7476 0.3480
vn -0.2987 -0.3966 0.8680
vn -0.4262 -0.2156 0.8786
vn -0.7031 -0.3675 0.6088
vn -0.4686 -0.6370 0.6121
vn -0.5970 -0.7471 -0.2922
vn -0.2101 -0.9059 -0.3678
vn -0.2502 -0.9680 -0.0212
vn 0.1507 -0.9712 -0.1847
vn 0.9218 -0.3630 -0.1361
vn 0.9789 -0.0528 -0.1974
vn 0.9906 -0.0185 0.1356
vn 0.9418 0.1646 -0.2933
vn 0.7979 0.5639 0.2131
vn 0.9011 0.3377 0.2720
vn 0.4528 0.5843 0.6735
vn -0.0480 0.9683 0.2453
vn -0.1505 0.6964 0.7017
vn -0.6740 0.6917 0.2594
vn -0.8014 0.2558 -0.5407
vn -0.9009 0.3437 -0.2649
vn -0.6274 0.5659 -0.5349
vn -0.5061 0.1986 -0.8393
vn 0.4982 -0.0827 -0.8631
vn -0.8791 -0.3331 -0.3411
vn -0.9886 0.0479 -0.1425
vn -0.8802 -0.1870 -0.4362
vn -0.7026 -0.5785 0.4144
vn -0.5180 -0.8214 0.2387
vn -0.9344 -0.0927 0.3439
vn -0.7997 0.0883 0.5939
vn -0.5465 0.8182 0.1784
vn -0.9225 0.3759 0.0879
vn -0.7415 0.5680 0.3572
vn -0.7880 0.6146 -0.0358
vn -0.1150 0.9199 0.3750
vn -0.2948 0.8787 0.3756
vn 0.5377 0.6953 0.4769
vn 0.0627 0.8636 0.5002
vn 0.3656 0.8075 0.4629
vn 0.6794 0.5829 0.4457
vn 0.6113 0.3709 0.6991
vn 0.4034 -0.2615 0.8769
vn 0.6529 -0.4284 0.6246
vn 0.7912 0.0652 0.6081
vn 0.0027 -0.5882 0.8087
vn -0.2864 -0.1010 0.9528
vn 0.5058 -0.4450 0.7390
vn 0.7076 -0.3604 0.6079
vn -0.2377 -0.8879 -0.3940
vn -0.5877 -0.7824 -0.2060
vn -0.3822 -0.9241 -0.0067
vn -0.6711 -0.6056 -0.4276
vn -0.2837 -0.7040 -0.6511
vn -0.8572 -0.5144 0.0226
vn -0.9210 -0.3650 -0.1360
vn -0.7022 -0.3237 -0.6341
vn -0.9904 -0.0179 0.1373
vn -0.9548 -0.1466 0.2584
vn -0.8864 0.2842 0.3656
vn 0.8677 0.4399 -0.2313
vn 0.3305 0.8658 0.3757
vn 0.5415 -0.0783 -0.8371
vn 0.1419 -0.2784 -0.9499
vn -0.4945 -0.0801 -0.8655
vn -0.3108 -0.3799 -0.8713
vn 0.1860 -0.6223 -0.7604
vn 0.6059 -0.3780 -0.7000
vn 0.8599 -0.0508 -0.5079
vn 0.8771 -0.1888 -0.4417
vn 0.9385 -0.0869 0.3342
vn 0.9365 -0.3215 0.1403
vn 0.9876 0.0707 -0.1401
vn 0.8985 0.4271 0.1012
vn 0.7016 -0.5781 0.4166
vn 0.7977 0.0875 0.5966
vn 0.7395 0.5676 0.3619
vn 0.3234 0.7116 0.6237
vn 0.0889 0.9177 0.3872
vn 0.4855 0.8516 0.1978
vn 0.7760 0.6306 -0.0115
vn 0.9189 0.3075 -0.2473
vn 0.2661 -0.0904 0.9597
vn -0.0591 0.1902 0.9800
vn -0.8034 -0.5933 -0.0517
vn -0.5587 0.2098 0.8024
vn 0.2332 -0.8870 -0.3986
vn -0.1979 -0.8257 -0.5282
vn 0.5877 -0.7803 -0.2138
vn 0.5040 -0.8602 -0.0780
vn 0.6723 -0.6046 -0.4271
vn 0.2837 -0.7040 -0.6511
vn 0.8654 -0.5006 0.0203
vn 0.7779 -0.6118 0.1434
vn 0.7060 -0.3207 -0.6314
vn 0.9562 -0.1320 0.2613
vn 0.8867 0.2834 0.3653
vn -0.5405 -0.0793 -0.8376
vn -0.1374 -0.2797 -0.9502
vn 0.3109 -0.3801 -0.8711
vn -0.1854 -0.6223 -0.7605
vn -0.6088 -0.3731 -0.7001
vn -0.6011 -0.5854 -0.5441
vn -0.8613 -0.0587 -0.5047
vn -0.9317 -0.3335 0.1441
vn -0.3200 0.7130 0.6238
vn 0.2136 0.6021 0.7694
vn 0.9042 -0.2120 0.3708
usemtl initialShadingGroup
s 1
f 6/1/1 7/2/2 8/3/3
f 10/4/4 11/5/5 12/6/6
f 14/7/7 18/8/8 16/9/9
f 20/10/10 24/11/11 21/12/12
f 23/13/13 27/14/14 25/15/15
f 37/16/16 43/17/17 41/18/18
f 45/19/19 4/20/20 43/17/17
f 45/19/19 44/21/21 46/22/22
f 46/22/22 4/20/20 45/19/19
f 4/20/20 46/22/22 2/23/23
f 46/22/22 47/24/24 2/23/23
f 47/24/24 48/25/25 2/23/23
f 53/26/26 5/27/27 51/28/28
f 9/29/29 6/30/1 8/31/3
f 3/32/30 5/27/27 6/30/1
f 3/32/30 2/23/23 5/27/27
f 26/33/31 25/15/15 29/34/32
f 24/11/11 20/10/10 26/33/31
f 11/5/5 10/4/4 22/35/33
f 22/35/33 10/4/4 23/36/13
f 44/21/21 76/37/34 70/38/35
f 77/39/36 71/40/37 70/38/35
f 13/41/38 12/6/6 79/42/39
f 80/43/40 34/44/41 13/45/38
f 13/45/38 78/46/42 80/43/40
f 75/47/43 46/22/22 44/21/21
f 85/48/44 83/49/45 84/50/46
f 87/51/47 89/52/48 90/53/49
f 93/54/50 92/55/51 97/56/52
f 93/54/50 97/56/52 98/57/53
f 99/58/54 104/59/55 100/60/56
f 105/61/57 100/60/56 104/59/55
f 114/62/58 116/63/59 117/64/60
f 119/65/61 86/66/62 120/67/63
f 86/66/62 122/68/64 120/67/63
f 81/69/65 124/70/66 122/68/64
f 81/69/65 125/71/67 124/70/66
f 128/72/68 127/73/69 82/74/70
f 82/74/70 129/75/71 128/72/68
f 85/76/44 119/65/61 132/77/72
f 85/76/44 86/66/62 119/65/61
f 84/78/46 81/69/65 86/66/62
f 81/69/65 84/78/46 82/74/70
f 103/79/73 139/80/74 137/81/75
f 143/82/76 98/57/53 97/56/52
f 143/82/76 101/83/77 98/57/53
f 87/51/47 98/57/53 101/83/77
f 142/84/78 97/56/52 144/85/79
f 150/86/80 140/87/81 145/88/82
f 151/89/83 139/80/74 140/87/81
f 150/86/80 149/90/84 126/91/85
f 123/92/86 152/93/87 149/90/84
f 149/90/84 148/94/88 123/92/86
f 153/95/89 123/92/86 148/94/88
f 148/94/88 154/96/90 153/95/89
f 156/97/91 91/98/92 155/99/93
f 88/100/94 91/101/92 156/102/91
f 93/54/50 98/57/53 88/100/94
f 124/70/66 126/91/85 152/93/87
f 89/103/48 100/104/56 105/105/57
f 22/35/33 23/36/13 20/106/10 21/107/12
f 3/32/30 4/20/20 2/23/23
f 4/20/20 3/32/30 9/29/29
f 10/4/4 12/6/6 13/41/38
f 14/7/7 16/9/9 17/108/95
f 15/109/96 19/110/97 14/7/7
f 15/109/96 11/5/5 19/110/97
f 25/15/15 27/14/14 28/111/98 29/34/32
f 20/10/10 23/13/13 25/15/15
f 25/15/15 26/33/31 20/10/10
f 31/112/99 28/113/98 27/114/14 30/115/100
f 28/113/98 31/112/99 32/116/101 33/117/102
f 35/118/103 31/112/99 30/115/100 34/44/41
f 36/119/104 32/116/101 31/112/99 35/118/103
f 32/116/101 36/119/104 37/16/16 38/120/105
f 40/121/106 36/119/104 35/118/103 39/122/107
f 43/17/17 37/16/16 40/121/106 42/123/108
f 36/119/104 40/121/106 37/16/16
f 41/18/18 43/17/17 4/20/20 9/29/29
f 5/27/27 2/23/23 48/25/25 50/124/109
f 43/17/17 44/21/21 45/19/19
f 47/24/24 49/125/110 48/25/25
f 6/1/1 5/126/27 53/26/26 7/2/2
f 50/124/109 51/28/28 5/27/27
f 51/28/28 52/127/111 53/26/26
f 52/127/111 54/128/112 7/2/2 53/26/26
f 56/129/113 7/2/2 54/128/112 55/130/114
f 41/18/18 56/131/113 38/120/105 37/16/16
f 7/2/2 56/129/113 8/3/3
f 55/132/114 38/120/105 56/131/113
f 8/31/3 56/131/113 41/18/18 9/29/29
f 57/133/115 33/134/102 55/130/114 54/128/112
f 9/29/29 3/32/30 6/30/1
f 38/120/105 55/132/114 33/117/102 32/116/101
f 58/135/116 57/133/115 54/128/112 52/127/111
f 29/34/32 57/133/115 58/135/116 26/33/31
f 33/134/102 57/133/115 29/34/32 28/111/98
f 59/136/117 60/137/118 26/33/31 58/135/116
f 63/138/119 64/139/120 61/140/121 62/141/122
f 60/137/118 24/11/11 26/33/31
f 24/11/11 60/137/118 61/140/121
f 21/12/12 24/11/11 61/140/121 64/139/120
f 19/110/97 65/142/123 64/143/120 63/144/119
f 21/107/12 64/143/120 65/142/123 22/35/33
f 67/145/124 63/138/119 62/141/122 66/146/125
f 65/142/123 19/110/97 11/5/5
f 65/142/123 11/5/5 22/35/33
f 18/8/8 67/145/124 66/146/125 68/147/126
f 63/144/119 67/145/124 19/110/97
f 14/7/7 19/110/97 67/145/124 18/8/8
f 70/38/35 71/40/37 68/147/126 69/148/127
f 18/8/8 68/147/126 71/40/37 16/9/9
f 69/148/127 68/147/126 66/146/125 72/149/128
f 49/125/110 72/149/128 62/141/122 73/150/129
f 72/149/128 66/146/125 62/141/122
f 73/150/129 62/141/122 61/140/121 74/151/130
f 48/25/25 73/150/129 74/151/130 50/124/109
f 60/137/118 59/136/117 74/151/130 61/140/121
f 50/124/109 74/151/130 59/136/117 51/28/28
f 72/149/128 49/125/110 75/47/43 69/148/127
f 70/38/35 69/148/127 75/47/43 44/21/21
f 73/150/129 48/25/25 49/125/110
f 78/46/42 77/39/36 76/37/34 42/123/108
f 70/38/35 76/37/34 77/39/36
f 17/108/95 77/39/36 78/46/42 79/152/39
f 16/9/9 71/40/37 77/39/36 17/108/95
f 14/7/7 17/108/95 79/42/39 12/6/6
f 79/152/39 78/46/42 13/45/38
f 14/7/7 12/6/6 11/5/5 15/109/96
f 34/44/41 80/43/40 39/122/107 35/118/103
f 13/45/38 34/44/41 10/153/4
f 34/44/41 30/115/100 10/153/4
f 42/123/108 39/122/107 80/43/40 78/46/42
f 42/123/108 76/37/34 44/21/21 43/17/17
f 42/123/108 40/121/106 39/122/107
f 46/22/22 75/47/43 49/125/110 47/24/24
f 52/127/111 51/28/28 59/136/117 58/135/116
f 23/154/13 10/153/4 30/115/100 27/114/14
f 91/101/92 88/100/94 87/51/47 90/53/49
f 87/51/47 88/100/94 98/57/53
f 94/155/131 95/156/132 92/55/51 93/54/50
f 101/83/77 102/157/133 99/158/54 100/159/56
f 92/55/51 95/156/132 96/160/134
f 107/161/135 105/61/57 104/59/55 106/162/136
f 99/58/54 102/163/133 103/79/73
f 109/164/137 108/165/138 105/105/57 107/166/135
f 108/165/138 89/103/48 105/105/57
f 111/167/139 109/164/137 107/166/135 110/168/140
f 108/165/138 109/164/137 112/169/141 113/170/142
f 114/62/58 112/169/141 109/164/137 111/167/139
f 116/63/59 114/62/58 111/167/139 115/171/143
f 112/169/141 114/62/58 117/64/60 118/172/144
f 117/64/60 116/63/59 120/67/63 121/173/145
f 84/50/46 83/49/45 129/75/71 82/174/70
f 116/63/59 119/65/61 120/67/63
f 122/68/64 123/92/86 120/67/63
f 86/66/62 81/69/65 122/68/64
f 125/71/67 126/91/85 124/70/66
f 82/74/70 127/73/69 125/71/67
f 125/71/67 81/69/65 82/74/70
f 129/75/71 130/175/146 128/72/68
f 130/175/146 129/75/71 83/49/45 131/176/147
f 131/176/147 83/49/45 132/177/72 133/178/148
f 115/171/143 132/77/72 119/65/61 116/63/59
f 132/77/72 115/171/143 133/179/148
f 132/77/72 83/180/45 85/76/44
f 134/181/149 131/176/147 133/178/148 110/182/140
f 85/76/44 84/78/46 86/66/62
f 110/168/140 133/179/148 115/171/143 111/167/139
f 131/176/147 134/181/149 135/183/150 130/175/146
f 135/183/150 134/181/149 106/162/136 136/184/151
f 106/162/136 134/181/149 110/182/140 107/161/135
f 138/185/152 135/183/150 136/184/151 137/81/75
f 137/81/75 136/184/151 99/58/54 103/79/73
f 104/59/55 99/58/54 136/184/151 106/162/136
f 142/186/78 140/87/81 139/80/74 141/187/153
f 102/163/133 141/187/153 139/80/74 103/79/73
f 97/56/52 142/84/78 141/188/153 143/82/76
f 143/82/76 141/188/153 102/157/133 101/83/77
f 89/52/48 87/51/47 101/83/77 100/159/56
f 140/87/81 142/186/78 144/85/79 145/88/82
f 145/88/82 144/85/79 96/160/134 146/189/154
f 92/55/51 96/160/134 144/85/79 97/56/52
f 148/94/88 149/90/84 146/189/154 147/190/155
f 147/190/155 146/189/154 96/160/134 95/156/132
f 145/88/82 146/189/154 149/90/84 150/86/80
f 137/81/75 139/80/74 127/73/69 138/185/152
f 150/86/80 151/89/83 140/87/81
f 151/89/83 150/86/80 126/91/85
f 151/89/83 127/73/69 139/80/74
f 127/73/69 151/89/83 125/71/67
f 153/95/89 154/96/90 155/99/93 121/173/145
f 127/73/69 128/72/68 138/185/152
f 126/91/85 149/90/84 152/93/87
f 126/91/85 125/71/67 151/89/83
f 155/99/93 154/96/90 94/155/131 156/97/91
f 154/96/90 148/94/88 147/190/155
f 95/156/132 94/155/131 154/96/90 147/190/155
f 93/54/50 88/100/94 156/102/91 94/155/131
f 157/191/156 91/98/92 90/192/49 113/170/142
f 113/170/142 90/192/49 89/103/48 108/165/138
f 91/98/92 157/191/156 155/99/93
f 118/172/144 157/191/156 113/170/142 112/169/141
f 121/173/145 155/99/93 157/191/156 118/172/144
f 123/92/86 153/95/89 121/173/145 120/67/63
f 118/172/144 117/64/60 121/173/145
f 122/68/64 124/70/66 152/93/87 123/92/86
f 130/175/146 135/183/150 138/185/152 128/72/68
